<svg xmlns="http://www.w3.org/2000/svg" width="350" height="150" viewBox="0 0 350 150" role="img" aria-label="ConAir Extract Solutions Limited">
  <style>
    .fan-spin { animation: fanspin 5.5s linear infinite; }
    @keyframes fanspin { from { transform: rotate(0deg); } to { transform: rotate(360deg); } }
  </style>
  <rect width="350" height="150" fill="#000000"/>
  <rect x="252" y="25" width="81" height="81" fill="#545657"/>
  <g transform="scale(0.25)">
    <path d="M 133 46.741 C 91.123 54.902, 63.059 81.264, 51.812 123 C 47.994 137.171, 47.735 139.556, 47.682 161 C 47.639 178.681, 47.947 183.655, 49.418 189 C 50.402 192.575, 51.626 197.300, 52.139 199.500 C 54.670 210.351, 63.076 226.763, 71.604 237.500 C 80.863 249.158, 88.499 255.460, 102.164 262.722 C 117.251 270.740, 127.664 273.029, 152 273.680 C 161.625 273.938, 169.839 274.477, 170.254 274.878 C 170.668 275.279, 171.213 285.708, 171.464 298.054 C 171.715 310.399, 172.370 322.525, 172.920 325 C 176.452 340.914, 179.355 350.605, 182.953 358.500 C 186.324 365.895, 190.028 373.485, 191.248 375.500 C 196.214 383.698, 201.989 392.051, 204.730 395 C 206.519 396.925, 207.987 398.807, 207.991 399.183 C 208.021 401.487, 233.184 423.319, 240.500 427.387 C 242.150 428.305, 245.075 430.017, 247 431.192 C 251.161 433.733, 261.723 438.986, 262.766 439.034 C 263.170 439.053, 265.300 439.937, 267.500 441 C 269.700 442.063, 272.175 442.967, 273 443.010 C 273.825 443.053, 276.300 443.747, 278.500 444.553 C 280.700 445.358, 288.125 447.199, 295 448.643 C 318.152 453.505, 355.569 452.084, 381.500 445.359 C 401.729 440.112, 417.305 434.644, 432.869 427.325 C 436.922 425.419, 441.197 423.418, 442.369 422.878 C 443.541 422.339, 446.300 420.798, 448.500 419.456 C 450.700 418.113, 453.850 416.328, 455.500 415.489 C 461.959 412.204, 478.677 400.783, 488.398 393.013 C 492.191 389.981, 496.691 386.395, 498.398 385.045 C 504.159 380.486, 530.081 357.197, 547.404 341.015 C 550.651 337.982, 565.140 323.760, 579.601 309.410 L 605.893 283.321 619.197 282.138 C 626.514 281.487, 640.600 280.305, 650.500 279.510 C 660.400 278.716, 670.975 277.621, 674 277.077 C 677.025 276.533, 684 275.955, 689.500 275.794 L 699.500 275.500 699.378 279.500 C 699.265 283.182, 697.940 287.938, 694.500 297 C 692.041 303.478, 687.410 317.972, 684.436 328.500 C 683.659 331.250, 682.608 334.400, 682.101 335.500 C 681.595 336.600, 679.974 341.550, 678.501 346.500 C 677.027 351.450, 674.962 358.089, 673.911 361.254 C 672.860 364.419, 672 367.560, 672 368.235 C 672 368.909, 671.083 371.826, 669.962 374.715 C 668.842 377.605, 666.940 382.563, 665.738 385.734 C 663.396 391.908, 660.030 397.081, 656 400.700 C 653.180 403.232, 639.249 408, 634.671 408 C 629.809 408, 618.725 410.140, 615.750 411.653 C 612.272 413.422, 611.877 418.329, 615.075 420.040 C 618.283 421.757, 737.486 421.671, 739.560 419.951 C 740.495 419.175, 740.984 417.458, 740.801 415.592 C 740.394 411.430, 737.516 410.213, 724.202 408.568 C 713.868 407.292, 706.163 404.691, 704.436 401.896 C 701.330 396.872, 702.805 384.128, 708.763 364.500 C 709.597 361.750, 710.875 357.025, 711.601 354 C 713.281 347.008, 716.517 335.393, 717.870 331.500 C 718.444 329.850, 719.868 325.125, 721.035 321 C 722.202 316.875, 723.978 310.800, 724.982 307.500 C 725.985 304.200, 728.013 297.450, 729.488 292.500 C 730.962 287.550, 732.782 281.925, 733.531 280 C 734.280 278.075, 735.202 274.927, 735.580 273.004 C 735.958 271.081, 736.856 268.156, 737.576 266.504 C 738.296 264.852, 740.076 259.450, 741.532 254.500 C 742.989 249.550, 744.603 244.600, 745.119 243.500 C 745.636 242.400, 746.694 239.250, 747.471 236.500 C 748.248 233.750, 750.067 228.350, 751.514 224.500 C 752.960 220.650, 754.585 215.925, 755.125 214 C 755.664 212.075, 756.709 209.150, 757.446 207.500 C 759.579 202.727, 763 193.543, 763 192.590 C 763 192.111, 763.845 189.870, 764.877 187.610 C 765.909 185.349, 767.767 180.800, 769.006 177.500 C 773.333 165.974, 782.701 146.153, 788.344 136.587 C 797.300 121.404, 807.331 115.338, 821.877 116.308 C 826.070 116.588, 831.975 117.563, 835 118.474 C 838.025 119.386, 842.699 120.189, 845.386 120.259 C 849.558 120.367, 850.616 119.985, 852.636 117.637 C 858.201 111.167, 853.464 102.237, 843 99.475 C 839.975 98.677, 835.475 98.027, 833 98.030 C 827.170 98.039, 812.487 100.594, 808 102.381 C 806.075 103.147, 801.125 105.053, 797 106.617 C 790.780 108.974, 781.510 113.579, 774 118.043 C 773.175 118.533, 770.025 120.391, 767 122.173 C 760.636 125.920, 737.759 142.100, 732.603 146.500 C 731.315 147.600, 729 149.400, 727.459 150.500 C 724.321 152.741, 701.975 170.588, 697.810 174.180 C 696.330 175.456, 693.192 178.075, 690.836 180 C 688.480 181.925, 684.516 185.317, 682.026 187.537 C 679.537 189.757, 672.793 195.607, 667.039 200.537 C 661.286 205.467, 653.877 211.975, 650.576 215 C 630.697 233.215, 608.462 253.739, 603.991 258 C 602.549 259.375, 595.582 265.900, 588.510 272.500 C 581.439 279.100, 574.451 285.625, 572.983 287 C 571.514 288.375, 566.786 292.650, 562.476 296.500 C 558.166 300.350, 551.674 306.200, 548.048 309.500 C 544.423 312.800, 538.335 318.200, 534.519 321.500 C 530.703 324.800, 525.537 329.330, 523.040 331.566 C 520.543 333.802, 513.550 339.646, 507.500 344.553 C 501.450 349.459, 495.917 354.030, 495.204 354.711 C 493.942 355.917, 478.485 367.792, 471.153 373.189 C 465.386 377.434, 439.816 394.571, 436.500 396.413 C 434.850 397.329, 431.700 399.128, 429.500 400.409 C 427.300 401.691, 420.775 405.083, 415 407.948 C 409.225 410.812, 403.768 413.539, 402.874 414.009 C 401.980 414.478, 397.480 416.285, 392.874 418.024 C 388.268 419.763, 383.753 421.572, 382.840 422.045 C 378.653 424.213, 355.406 429.387, 342.500 431.024 C 333.178 432.207, 313.194 432.174, 304.500 430.963 C 290.742 429.046, 280.400 427.084, 274 425.178 C 266.932 423.073, 250.922 415.839, 247.416 413.165 C 246.214 412.249, 244.225 410.825, 242.995 410 C 236.285 405.500, 229.175 398.743, 222.996 390.995 C 216.482 382.826, 208.008 369.989, 207.994 368.268 C 207.990 367.846, 207.271 366.150, 206.395 364.500 C 203.721 359.463, 200.200 347.770, 198.381 337.885 C 194.490 316.749, 197.445 291.102, 206.713 265.579 C 207.994 262.053, 210.961 258.079, 217.187 251.556 C 228.405 239.800, 238.053 225.675, 239.509 218.873 C 239.906 217.018, 240.642 214.988, 241.144 214.363 C 241.646 213.738, 242.673 210.138, 243.426 206.363 C 244.179 202.588, 245.381 197.084, 246.097 194.132 C 248.040 186.116, 247.732 186, 224.531 186 C 202.616 186, 201.602 186.306, 200.505 193.244 C 199.669 198.534, 195.557 209.158, 192.425 214.119 C 186.474 223.547, 177.839 230.099, 166.967 233.438 C 160.712 235.359, 143.953 235.210, 136 233.164 C 121.163 229.345, 107.172 216.256, 101.072 200.487 C 99.798 197.194, 98.178 193.375, 97.473 192 C 96.768 190.625, 95.438 183.188, 94.518 175.473 C 92.964 162.439, 92.961 160.392, 94.475 146.571 C 95.372 138.390, 96.757 130.437, 97.553 128.898 C 98.349 127.359, 99 125.429, 99 124.610 C 99 123.791, 101.087 119.037, 103.639 114.045 C 110.862 99.913, 122.201 90.298, 136.292 86.358 C 154.550 81.253, 173.212 85.587, 186.098 97.925 C 190.352 101.998, 196 109.228, 196 110.599 C 196 110.880, 196.834 112.998, 197.853 115.305 C 198.872 117.612, 199.986 120.296, 200.329 121.270 C 200.903 122.900, 202.635 123.019, 222.226 122.770 L 243.500 122.500 243.409 116.349 C 243.250 105.590, 236.091 89.029, 226.369 76.929 C 216.568 64.729, 197.485 52.987, 181 49.012 C 163.222 44.726, 147.224 43.969, 133 46.741 M 318.500 109.029 C 306.235 111.417, 293.374 116.611, 285.803 122.235 C 269.962 134.003, 258.572 153.454, 256.023 173.093 C 254.794 182.563, 254.789 200.402, 256.014 209.831 C 259.479 236.522, 277.816 259.771, 302.500 268.771 C 322.223 275.963, 348.582 275.835, 367.500 268.457 C 376.279 265.033, 379.967 263.071, 385 259.146 C 399.620 247.746, 408.431 233.164, 413.026 212.765 C 414.909 204.405, 415.154 200.944, 414.759 188.265 C 414.290 173.197, 412.972 165.929, 408.730 155 C 407.555 151.975, 406.011 148.790, 405.297 147.921 C 404.584 147.053, 404 145.975, 404 145.525 C 404 143.355, 396.310 133.549, 390.099 127.798 C 380.044 118.489, 367.433 112.479, 350.500 108.926 C 345.586 107.895, 323.968 107.965, 318.500 109.029 M 499.500 108.650 C 494.815 109.850, 485.197 113.605, 481.418 115.710 C 477.253 118.029, 469.702 124.953, 467 128.929 C 465.981 130.429, 464.939 130.920, 463.750 130.461 C 462.318 129.909, 462 128.534, 462 122.893 C 462 112.272, 462.042 112.293, 441.173 112.618 C 431.725 112.765, 423.546 113.163, 422.997 113.502 C 422.348 113.903, 422 140.803, 422 190.524 C 422 265.041, 422.048 266.955, 423.934 267.965 C 426.877 269.540, 461.938 269.344, 462.514 267.750 C 462.762 267.063, 463.106 245.575, 463.278 220 L 463.591 173.500 466.322 164.860 C 469.526 154.727, 474.373 148.452, 481.761 144.871 C 485.660 142.982, 488.184 142.568, 496 142.537 C 501.372 142.516, 507.102 143.068, 509.187 143.807 C 514.073 145.538, 518.607 150.262, 521.852 157 L 524.500 162.500 524.807 214.796 L 525.114 267.093 527.622 268.046 C 531.031 269.343, 562.620 269.274, 565.066 267.965 C 566.943 266.960, 567 265.275, 567 211.212 C 567 156.075, 566.976 155.397, 564.648 145.998 C 563.354 140.774, 561.338 134.623, 560.168 132.328 C 557.842 127.770, 547.428 116, 545.721 116 C 545.136 116, 543.947 115.399, 543.079 114.665 C 542.210 113.931, 538.350 112.274, 534.500 110.983 C 528.831 109.082, 525.028 108.588, 514.500 108.387 C 507.350 108.250, 500.600 108.369, 499.500 108.650 M 320 142.217 C 308.996 147.227, 301.825 157.236, 298.172 172.684 C 294.310 189.015, 296.154 210.345, 302.522 223.010 C 310.717 239.306, 328.751 246.661, 346.474 240.935 C 357.444 237.391, 364.773 229.430, 369.821 215.578 C 372.226 208.980, 372.400 207.314, 372.400 191 C 372.400 174.686, 372.226 173.020, 369.821 166.422 C 365.162 153.636, 359.111 146.701, 348.623 142.127 C 341.842 139.170, 326.588 139.218, 320 142.217 M 740.500 157.118 C 737.750 159.344, 734.366 162.141, 732.981 163.333 C 731.596 164.525, 726.423 168.875, 721.487 173 C 716.550 177.125, 711.783 181.175, 710.892 182 C 710.002 182.825, 705.504 186.875, 700.898 191 C 687.403 203.086, 677.883 212.151, 654.214 235.456 C 629.491 259.800, 628.370 261.543, 637.500 261.448 C 661.122 261.203, 703.496 258.914, 705.174 257.793 C 707.138 256.482, 711.373 247.200, 712.574 241.578 C 712.935 239.885, 713.588 238.050, 714.024 237.500 C 714.829 236.483, 718.214 227.360, 720.145 221 C 720.730 219.075, 721.560 217.050, 721.991 216.500 C 722.422 215.950, 724.009 212.350, 725.517 208.500 C 727.026 204.650, 729.377 199.025, 730.742 196 C 732.107 192.975, 734.126 188.475, 735.229 186 C 737.735 180.378, 748.781 157.111, 750.065 154.750 C 751.953 151.278, 745.847 152.790, 740.500 157.118 M 836.916 175.226 C 826.879 181.213, 825.331 193.693, 833.712 201.052 C 837.166 204.085, 837.581 204.189, 844.750 203.827 C 851.841 203.469, 852.359 203.276, 855.539 199.806 C 861.104 193.734, 862.303 184.479, 858.183 179.398 C 852.847 172.816, 843.899 171.061, 836.916 175.226 M 831 261.026 C 820.543 263.406, 808.930 270.001, 796.103 280.844 C 788.430 287.330, 777 301.035, 777 303.750 C 777 304.988, 777.156 306, 777.346 306 C 779.620 306, 786.024 301.160, 792.511 294.541 C 800.436 286.454, 811.250 278.490, 815.906 277.313 C 819.123 276.500, 821.309 279.431, 820.550 283.540 C 820.241 285.213, 817.874 290.613, 815.289 295.540 C 812.705 300.468, 808.695 308.100, 806.379 312.500 C 804.063 316.900, 800.528 323.650, 798.524 327.500 C 796.521 331.350, 791.994 339.900, 788.466 346.500 C 769.559 381.865, 761.551 400.672, 760.281 412.693 C 759.769 417.532, 759.949 418.103, 762.917 421.071 C 766.026 424.180, 766.276 424.245, 773.301 423.784 C 787.949 422.824, 803.997 411.398, 819.537 390.867 C 826.725 381.369, 830 376.106, 830 374.050 C 830 373.472, 828.897 373, 827.550 373 C 825.836 373, 823.958 374.413, 821.300 377.702 C 806.848 395.584, 788.995 409.673, 784.103 407.055 C 783.076 406.505, 781.946 405.301, 781.592 404.379 C 780.961 402.735, 783.410 394.729, 785.305 392.238 C 786.367 390.842, 788.317 387.272, 792.535 379 C 794.078 375.975, 798.764 367.425, 802.949 360 C 814.566 339.388, 832.925 301.718, 839.377 285.257 C 843.947 273.598, 844.324 266.233, 840.545 262.455 C 837.981 259.891, 836.781 259.711, 831 261.026 M 886 262.831 C 875.243 267.961, 858.687 284.723, 846.820 302.500 C 842.836 308.467, 842.805 310.433, 846.687 310.809 C 849.191 311.051, 850.156 310.606, 851.187 308.733 C 855.667 300.598, 875.174 278, 877.717 278 C 878.301 278, 879.795 278.823, 881.037 279.829 C 883.512 281.833, 883.662 280.760, 879.056 294 C 878.386 295.925, 877.232 299.750, 876.490 302.500 C 874.738 308.991, 872.285 316.326, 869.904 322.185 C 868.857 324.762, 868 327.454, 868 328.166 C 868 328.878, 867.154 331.720, 866.119 334.481 C 863.314 341.967, 861.922 346.007, 860.428 351 C 859.687 353.475, 857.925 358.650, 856.512 362.500 C 855.099 366.350, 852.385 374, 850.481 379.500 C 843.685 399.125, 842.806 401.513, 842.013 402.500 C 841.571 403.050, 840.269 406.563, 839.119 410.308 C 837.129 416.791, 837.111 417.244, 838.742 419.808 C 841.039 423.420, 841.948 423.967, 845.685 423.985 C 853.014 424.020, 855.631 421.027, 861.413 406 C 865.869 394.417, 877.320 369.967, 882.020 362 C 882.507 361.175, 888.802 350.150, 896.010 337.500 C 923.929 288.505, 931.753 278, 940.328 278 C 943.723 278, 944.705 279.567, 946.958 288.582 C 948.070 293.031, 949.684 297.027, 950.656 297.738 C 951.606 298.432, 954.770 299, 957.688 299 C 962.347 299, 963.467 298.573, 966.864 295.504 C 969.791 292.859, 971.147 290.536, 972.428 285.970 C 973.985 280.422, 973.995 279.510, 972.553 274.716 C 970.749 268.718, 968.953 266.338, 963.882 263.223 C 956.679 258.798, 942.744 260.726, 933.650 267.406 C 927.521 271.908, 912.729 292.718, 904.438 308.500 C 903.572 310.150, 901.794 313.300, 900.487 315.500 C 899.181 317.700, 897.185 321.300, 896.053 323.500 C 894.921 325.700, 892.886 329.300, 891.532 331.500 C 890.178 333.700, 888.366 336.981, 887.505 338.790 C 886.644 340.600, 885.503 341.811, 884.970 341.481 C 883.558 340.609, 883.783 335.763, 885.343 333.473 C 886.081 332.388, 887.169 329.700, 887.760 327.500 C 888.351 325.300, 890.022 320.350, 891.472 316.500 C 892.923 312.650, 894.714 307.250, 895.453 304.500 C 896.191 301.750, 897.282 298.150, 897.877 296.500 C 901.239 287.171, 903.350 277.726, 903.421 271.697 C 903.492 265.573, 903.251 264.702, 901 262.969 C 897.880 260.567, 890.883 260.503, 886 262.831 " stroke="none" fill="#ffffff" fill-rule="evenodd"/>
  </g>
  <g transform="translate(11,139.5) scale(0.9109,1)">
    <path d="M19.700 0L2.541 0L2.541-22.994L19.167-22.994L19.167-20.281L5.584-20.281L5.584-13.238L18.304-13.238L18.304-10.540L5.584-10.540L5.584-2.714L19.700-2.714L19.700 0M25.080 0L21.661 0L27.747-8.658L22.116-16.657L25.645-16.657L28.202-12.752Q28.923-11.638 29.362-10.885Q30.052-11.921 30.633-12.721L33.440-16.657L36.813-16.657L31.056-8.815L37.252 0L33.786 0L30.366-5.176L29.456-6.572L25.080 0M45.769-2.525L46.177-0.031Q44.985 0.220 44.044 0.220Q42.506 0.220 41.659-0.267Q40.812-0.753 40.467-1.545Q40.122-2.337 40.122-4.878L40.122-14.462L38.052-14.462L38.052-16.657L40.122-16.657L40.122-20.783L42.930-22.477L42.930-16.657L45.769-16.657L45.769-14.462L42.930-14.462L42.930-4.721Q42.930-3.513 43.079-3.168Q43.228-2.823 43.565-2.619Q43.902-2.415 44.530-2.415Q45-2.415 45.769-2.525M51.321 0L48.498 0L48.498-16.657L51.039-16.657L51.039-14.132Q52.012-15.905 52.835-16.469Q53.658-17.034 54.647-17.034Q56.074-17.034 57.548-16.124L56.576-13.505Q55.541-14.117 54.505-14.117Q53.580-14.117 52.843-13.560Q52.106-13.003 51.792-12.015Q51.321-10.509 51.321-8.721L51.321 0M70.096-2.055Q68.528-0.722 67.077-0.173Q65.626 0.376 63.963 0.376Q61.219 0.376 59.744-0.965Q58.270-2.306 58.270-4.392Q58.270-5.615 58.827-6.627Q59.383-7.639 60.285-8.250Q61.187-8.862 62.317-9.176Q63.148-9.395 64.826-9.599Q68.245-10.007 69.861-10.572Q69.877-11.152 69.877-11.309Q69.877-13.034 69.077-13.740Q67.995-14.697 65.861-14.697Q63.869-14.697 62.920-13.999Q61.971-13.301 61.517-11.528L58.756-11.905Q59.132-13.677 59.995-14.767Q60.858-15.858 62.489-16.446Q64.120-17.034 66.269-17.034Q68.402-17.034 69.736-16.532Q71.069-16.030 71.696-15.269Q72.324-14.509 72.575-13.348Q72.716-12.626 72.716-10.744L72.716-6.980Q72.716-3.043 72.896-2Q73.076-0.957 73.610 0L70.661 0Q70.222-0.878 70.096-2.055M69.861-7.325L69.861-8.360Q68.324-7.733 65.250-7.294Q63.509-7.043 62.787-6.729Q62.066-6.415 61.673-5.811Q61.281-5.207 61.281-4.470Q61.281-3.341 62.136-2.588Q62.991-1.835 64.638-1.835Q66.269-1.835 67.540-2.549Q68.810-3.262 69.406-4.502Q69.861-5.458 69.861-7.325M87.962-6.101L90.738-5.741Q90.283-2.870 88.409-1.247Q86.534 0.376 83.805 0.376Q80.386 0.376 78.307-1.859Q76.229-4.094 76.229-8.266Q76.229-10.964 77.123-12.987Q78.017-15.011 79.845-16.022Q81.672-17.034 83.821-17.034Q86.534-17.034 88.260-15.661Q89.985-14.289 90.471-11.764L87.726-11.340Q87.334-13.019 86.338-13.866Q85.342-14.713 83.931-14.713Q81.797-14.713 80.464-13.183Q79.131-11.654 79.131-8.344Q79.131-4.988 80.417-3.466Q81.703-1.945 83.774-1.945Q85.436-1.945 86.550-2.964Q87.664-3.984 87.962-6.101M99.317-2.525L99.725-0.031Q98.533 0.220 97.592 0.220Q96.055 0.220 95.208-0.267Q94.361-0.753 94.016-1.545Q93.671-2.337 93.671-4.878L93.671-14.462L91.600-14.462L91.600-16.657L93.671-16.657L93.671-20.783L96.479-22.477L96.479-16.657L99.317-16.657L99.317-14.462L96.479-14.462L96.479-4.721Q96.479-3.513 96.628-3.168Q96.777-2.823 97.114-2.619Q97.451-2.415 98.078-2.415Q98.549-2.415 99.317-2.525M110.328-7.388L113.199-7.639Q113.403-5.913 114.148-4.807Q114.893-3.702 116.461-3.019Q118.030-2.337 119.990-2.337Q121.731-2.337 123.065-2.855Q124.398-3.372 125.049-4.274Q125.700-5.176 125.700-6.243Q125.700-7.325 125.072-8.133Q124.445-8.940 123.002-9.489Q122.076-9.850 118.908-10.611Q115.740-11.372 114.469-12.046Q112.822-12.909 112.015-14.187Q111.207-15.465 111.207-17.050Q111.207-18.791 112.195-20.304Q113.183-21.818 115.081-22.602Q116.979-23.386 119.300-23.386Q121.857-23.386 123.810-22.563Q125.762-21.739 126.813-20.140Q127.864-18.540 127.943-16.516L125.025-16.297Q124.790-18.477 123.433-19.591Q122.076-20.704 119.426-20.704Q116.665-20.704 115.402-19.693Q114.140-18.681 114.140-17.254Q114.140-16.014 115.034-15.214Q115.912-14.415 119.622-13.575Q123.331-12.736 124.712-12.109Q126.719-11.183 127.676-9.764Q128.633-8.344 128.633-6.494Q128.633-4.658 127.582-3.035Q126.531-1.412 124.563-0.510Q122.594 0.392 120.132 0.392Q117.010 0.392 114.901-0.518Q112.791-1.427 111.591-3.255Q110.391-5.082 110.328-7.388M131.378-8.329Q131.378-12.956 133.950-15.183Q136.099-17.034 139.189-17.034Q142.624-17.034 144.804-14.783Q146.984-12.532 146.984-8.564Q146.984-5.349 146.020-3.506Q145.055-1.663 143.212-0.643Q141.369 0.376 139.189 0.376Q135.691 0.376 133.534-1.867Q131.378-4.109 131.378-8.329M134.279-8.329Q134.279-5.129 135.675-3.537Q137.071-1.945 139.189-1.945Q141.291-1.945 142.687-3.545Q144.083-5.145 144.083-8.423Q144.083-11.513 142.679-13.105Q141.275-14.697 139.189-14.697Q137.071-14.697 135.675-13.113Q134.279-11.528 134.279-8.329M153.054 0L150.231 0L150.231-22.994L153.054-22.994L153.054 0M170.873 0L168.347 0L168.347-2.447Q166.402 0.376 163.061 0.376Q161.587 0.376 160.309-0.188Q159.030-0.753 158.411-1.608Q157.791-2.463 157.540-3.702Q157.368-4.533 157.368-6.337L157.368-16.657L160.191-16.657L160.191-7.419Q160.191-5.207 160.364-4.439Q160.630-3.325 161.493-2.690Q162.356-2.055 163.626-2.055Q164.897-2.055 166.010-2.706Q167.124-3.357 167.587-4.478Q168.049-5.600 168.049-7.733L168.049-16.657L170.873-16.657L170.873 0M181.460-2.525L181.868-0.031Q180.676 0.220 179.735 0.220Q178.197 0.220 177.350-0.267Q176.503-0.753 176.158-1.545Q175.813-2.337 175.813-4.878L175.813-14.462L173.743-14.462L173.743-16.657L175.813-16.657L175.813-20.783L178.621-22.477L178.621-16.657L181.460-16.657L181.460-14.462L178.621-14.462L178.621-4.721Q178.621-3.513 178.770-3.168Q178.919-2.823 179.256-2.619Q179.593-2.415 180.221-2.415Q180.691-2.415 181.460-2.525M187.059-19.747L184.236-19.747L184.236-22.994L187.059-22.994L187.059-19.747M187.059 0L184.236 0L184.236-16.657L187.059-16.657L187.059 0M190.306-8.329Q190.306-12.956 192.879-15.183Q195.027-17.034 198.117-17.034Q201.552-17.034 203.733-14.783Q205.913-12.532 205.913-8.564Q205.913-5.349 204.948-3.506Q203.984-1.663 202.141-0.643Q200.298 0.376 198.117 0.376Q194.620 0.376 192.463-1.867Q190.306-4.109 190.306-8.329M193.208-8.329Q193.208-5.129 194.604-3.537Q196-1.945 198.117-1.945Q200.219-1.945 201.615-3.545Q203.011-5.145 203.011-8.423Q203.011-11.513 201.607-13.105Q200.203-14.697 198.117-14.697Q196-14.697 194.604-13.113Q193.208-11.528 193.208-8.329M212.046 0L209.222 0L209.222-16.657L211.763-16.657L211.763-14.289Q213.598-17.034 217.065-17.034Q218.571-17.034 219.833-16.493Q221.096-15.952 221.723-15.073Q222.351-14.195 222.602-12.987Q222.759-12.203 222.759-10.242L222.759 0L219.935 0L219.935-10.133Q219.935-11.858 219.606-12.713Q219.276-13.568 218.437-14.077Q217.598-14.587 216.469-14.587Q214.665-14.587 213.355-13.442Q212.046-12.297 212.046-9.097L212.046 0M225.958-4.972L228.750-5.411Q228.985-3.733 230.060-2.839Q231.134-1.945 233.064-1.945Q235.009-1.945 235.950-2.737Q236.891-3.529 236.891-4.596Q236.891-5.552 236.059-6.101Q235.479-6.478 233.173-7.058Q230.068-7.843 228.868-8.415Q227.668-8.988 227.048-9.999Q226.429-11.011 226.429-12.234Q226.429-13.348 226.939-14.297Q227.448-15.246 228.327-15.873Q228.985-16.359 230.123-16.697Q231.260-17.034 232.562-17.034Q234.522-17.034 236.005-16.469Q237.487-15.905 238.193-14.940Q238.898-13.975 239.165-12.360L236.405-11.983Q236.216-13.270 235.314-13.991Q234.413-14.713 232.766-14.713Q230.821-14.713 229.989-14.069Q229.158-13.426 229.158-12.564Q229.158-12.015 229.503-11.576Q229.848-11.121 230.585-10.823Q231.009-10.666 233.079-10.101Q236.075-9.301 237.259-8.791Q238.444-8.282 239.118-7.309Q239.792-6.337 239.792-4.894Q239.792-3.482 238.969-2.235Q238.146-0.988 236.593-0.306Q235.040 0.376 233.079 0.376Q229.832 0.376 228.131-0.972Q226.429-2.321 225.958-4.972M266.677 0L252.309 0L252.309-22.994L255.352-22.994L255.352-2.714L266.677-2.714L266.677 0M272.778-19.747L269.955-19.747L269.955-22.994L272.778-22.994L272.778-19.747M272.778 0L269.955 0L269.955-16.657L272.778-16.657L272.778 0M279.899 0L277.076 0L277.076-16.657L279.601-16.657L279.601-14.320Q280.385-15.544 281.687-16.289Q282.989-17.034 284.652-17.034Q286.502-17.034 287.687-16.265Q288.871-15.497 289.357-14.117Q291.333-17.034 294.502-17.034Q296.980-17.034 298.313-15.661Q299.646-14.289 299.646-11.434L299.646 0L296.839 0L296.839-10.493Q296.839-12.187 296.564-12.932Q296.290-13.677 295.568-14.132Q294.847-14.587 293.874-14.587Q292.118-14.587 290.957-13.419Q289.796-12.250 289.796-9.678L289.796 0L286.973 0L286.973-10.823Q286.973-12.705 286.283-13.646Q285.593-14.587 284.024-14.587Q282.832-14.587 281.820-13.960Q280.809-13.332 280.354-12.125Q279.899-10.917 279.899-8.642L279.899 0M306.673-19.747L303.850-19.747L303.850-22.994L306.673-22.994L306.673-19.747M306.673 0L303.850 0L303.850-16.657L306.673-16.657L306.673 0M317.135-2.525L317.543-0.031Q316.351 0.220 315.410 0.220Q313.873 0.220 313.026-0.267Q312.179-0.753 311.834-1.545Q311.489-2.337 311.489-4.878L311.489-14.462L309.418-14.462L309.418-16.657L311.489-16.657L311.489-20.783L314.296-22.477L314.296-16.657L317.135-16.657L317.135-14.462L314.296-14.462L314.296-4.721Q314.296-3.513 314.445-3.168Q314.594-2.823 314.932-2.619Q315.269-2.415 315.896-2.415Q316.367-2.415 317.135-2.525M331.299-5.364L334.216-5.004Q333.526-2.447 331.660-1.035Q329.793 0.376 326.891 0.376Q323.237 0.376 321.096-1.874Q318.955-4.125 318.955-8.188Q318.955-12.391 321.119-14.713Q323.284-17.034 326.734-17.034Q330.075-17.034 332.193-14.760Q334.310-12.485 334.310-8.360Q334.310-8.109 334.295-7.607L321.872-7.607Q322.029-4.862 323.425-3.404Q324.821-1.945 326.907-1.945Q328.460-1.945 329.558-2.761Q330.656-3.576 331.299-5.364M322.029-9.929L331.330-9.929Q331.142-12.030 330.264-13.081Q328.915-14.713 326.766-14.713Q324.821-14.713 323.496-13.411Q322.170-12.109 322.029-9.929M351.187 0L348.568 0L348.568-2.102Q346.984 0.376 343.910 0.376Q341.918 0.376 340.247-0.722Q338.577-1.819 337.659-3.788Q336.742-5.756 336.742-8.313Q336.742-10.807 337.573-12.838Q338.404-14.869 340.067-15.952Q341.729-17.034 343.784-17.034Q345.290-17.034 346.466-16.399Q347.643-15.763 348.380-14.744L348.380-22.994L351.187-22.994L351.187 0M339.643-8.313Q339.643-5.113 340.992-3.529Q342.341-1.945 344.176-1.945Q346.027-1.945 347.321-3.459Q348.615-4.972 348.615-8.078Q348.615-11.497 347.298-13.097Q345.980-14.697 344.051-14.697Q342.169-14.697 340.906-13.160Q339.643-11.623 339.643-8.313" fill="#ffffff"/>
  </g>
  <circle cx="292.5" cy="66.5" r="37.5" fill="#000000"/>
  <g transform="translate(292.5,66.5)">
    <g class="fan-spin">
      <g transform="translate(-37.5,-37.5)">
        <circle cx="37.5" cy="37.5" r="36.6" fill="#ffffff"/>
        <g transform="scale(0.25)">
          <path fill-opacity="0.318" d="M 120.334 2.890 C 116.392 3.289, 112.567 4.102, 111.834 4.695 C 111.100 5.288, 108.477 6.108, 106.005 6.516 C 103.533 6.924, 99.940 8.100, 98.020 9.129 C 96.100 10.158, 93.566 11, 92.387 11 C 91.209 11, 89.685 11.675, 89 12.500 C 88.315 13.325, 87.248 14.002, 86.628 14.004 C 84.892 14.010, 75.175 19.078, 68.500 23.459 C 55.285 32.132, 44.206 41.850, 34.756 53.059 C 27.993 61.080, 26 63.774, 26 64.894 C 26 65.502, 25.527 66, 24.948 66 C 24.369 66, 23.425 67.350, 22.850 69 C 22.275 70.650, 21.447 72, 21.011 72 C 20.574 72, 19.512 73.762, 18.651 75.915 C 17.789 78.068, 16.650 80.098, 16.119 80.426 C 15.588 80.755, 14.865 82.337, 14.513 83.942 C 14.160 85.548, 13.225 87.398, 12.436 88.053 C 11.646 88.709, 11 89.984, 11 90.887 C 11 91.791, 10.166 94.098, 9.147 96.015 C 8.127 97.932, 6.964 101.284, 6.561 103.465 C 6.158 105.646, 5.236 108.577, 4.511 109.979 C 3.786 111.380, 2.874 114.658, 2.483 117.263 C 2.093 119.868, 1.374 122, 0.886 122 C 0.392 122, 0 134.391, 0 150 C 0 165.609, 0.392 178, 0.886 178 C 1.374 178, 2.093 180.132, 2.483 182.737 C 2.874 185.342, 3.786 188.620, 4.511 190.021 C 5.236 191.423, 6.158 194.354, 6.561 196.535 C 6.964 198.716, 8.127 202.068, 9.147 203.985 C 10.166 205.902, 11 208.209, 11 209.113 C 11 210.016, 11.646 211.291, 12.436 211.947 C 13.225 212.602, 14.160 214.452, 14.513 216.058 C 14.865 217.663, 15.588 219.245, 16.119 219.574 C 16.650 219.902, 17.789 221.932, 18.651 224.085 C 19.512 226.238, 20.574 228, 21.011 228 C 21.447 228, 22.275 229.350, 22.850 231 C 23.425 232.650, 24.369 234, 24.948 234 C 25.527 234, 26.001 234.563, 26.001 235.250 C 26.002 235.938, 27.108 237.850, 28.459 239.500 C 29.810 241.150, 31.721 243.553, 32.707 244.839 C 37.868 251.574, 50.320 263.286, 60.500 270.982 C 62.700 272.645, 65.379 274.680, 66.453 275.503 C 67.528 276.326, 68.921 277, 69.548 277 C 70.176 277, 71.505 277.900, 72.500 279 C 73.495 280.100, 75.114 281, 76.096 281 C 77.078 281, 78.141 281.418, 78.457 281.930 C 79.219 283.163, 90.948 289, 92.663 289 C 93.402 289, 95.686 289.900, 97.739 291 C 99.791 292.100, 102.602 293.003, 103.985 293.006 C 105.368 293.010, 107.850 293.797, 109.500 294.756 C 112.153 296.298, 116.319 296.539, 145.500 296.837 C 180.905 297.199, 179.176 297.374, 195.500 291.795 C 197.150 291.231, 200.525 290.078, 203 289.233 C 205.475 288.388, 208.210 287.090, 209.079 286.348 C 209.947 285.607, 211.349 285, 212.194 285 C 213.039 285, 214.803 284.195, 216.115 283.210 C 217.427 282.226, 219.625 280.871, 221 280.200 C 226.209 277.656, 238.606 268.942, 243.609 264.307 C 245.869 262.213, 249.019 259.331, 250.609 257.903 C 259.132 250.247, 271.523 234.296, 276.171 225 C 276.858 223.625, 278.226 221.427, 279.210 220.115 C 280.195 218.803, 281 217.074, 281 216.273 C 281 215.471, 281.900 213.671, 283 212.273 C 284.100 210.874, 285 208.868, 285 207.813 C 285 206.759, 285.858 204.232, 286.906 202.198 C 287.954 200.164, 289.255 196.700, 289.796 194.500 C 290.337 192.300, 291.247 189.150, 291.817 187.500 C 296.717 173.326, 297.029 171.056, 297.014 149.725 C 297.002 131.537, 296.751 128.241, 295 123.260 C 293.900 120.130, 292.985 116.654, 292.966 115.535 C 292.947 114.416, 292.063 111.700, 291 109.500 C 289.937 107.300, 289.050 104.375, 289.027 103 C 289.005 101.625, 288.093 99.150, 287 97.500 C 285.907 95.850, 285.010 93.548, 285.007 92.385 C 285.003 91.222, 284.100 89.126, 283 87.727 C 281.900 86.329, 281 84.529, 281 83.727 C 281 82.926, 280.195 81.197, 279.210 79.885 C 278.226 78.573, 276.858 76.375, 276.171 75 C 274.028 70.714, 272.384 68.082, 270.661 66.178 C 269.748 65.169, 269 63.990, 269 63.560 C 269 62.526, 261.529 53.478, 256.772 48.751 C 254.698 46.689, 253 44.552, 253 44.001 C 253 43.450, 252.662 42.992, 252.250 42.983 C 251.838 42.974, 249.375 40.973, 246.779 38.537 C 240.683 32.818, 231.644 26, 230.159 26 C 229.522 26, 229 25.527, 229 24.948 C 229 24.369, 227.650 23.425, 226 22.850 C 224.350 22.275, 223 21.427, 223 20.967 C 223 20.506, 221.425 19.560, 219.500 18.864 C 217.575 18.168, 216 17.274, 216 16.877 C 216 16.480, 214.313 15.606, 212.250 14.935 C 210.188 14.264, 207.612 13.104, 206.527 12.358 C 205.443 11.611, 203.861 11, 203.013 11 C 202.164 11, 199.900 10.158, 197.980 9.129 C 196.060 8.100, 192.564 6.933, 190.211 6.536 C 187.857 6.138, 184.505 5.101, 182.761 4.231 C 180.157 2.932, 174.940 2.606, 153.546 2.407 C 139.220 2.273, 124.275 2.491, 120.334 2.890 M 103 34.063 C 100.908 34.466, 104.126 34.755, 111 34.782 C 119.305 34.815, 121.667 34.578, 119.500 33.929 C 116.215 32.944, 108.491 33.007, 103 34.063 M 49.638 123.500 C 49.322 124.325, 48.220 125, 47.190 125 C 44.111 125, 33.014 135.192, 33.005 138.028 C 33.002 138.868, 32.100 140.326, 31 141.268 C 29.822 142.276, 29 144.218, 29 145.990 C 29 149.550, 30.455 149.905, 32.111 146.750 C 35.328 140.624, 51.041 124.076, 53.691 124.024 C 56.424 123.970, 55.913 122, 53.166 122 C 51.464 122, 49.970 122.635, 49.638 123.500" stroke="none" fill="black" fill-rule="evenodd"/>
          <path fill-opacity="0.051" d="M 126 3.621 C 110.406 5.474, 86.457 14.314, 70.735 24.018 C 57.989 31.885, 41.901 46.183, 33.811 56.831 C 31.443 59.949, 29.278 62.725, 29 63 C 28.022 63.967, 23.201 71.566, 19.756 77.570 C 12.269 90.620, 4.456 112.301, 2.396 125.750 C 2.037 128.088, 1.352 130, 0.872 130 C 0.392 130, 0 139, 0 150 C 0 161, 0.392 170, 0.872 170 C 1.352 170, 2.037 171.912, 2.396 174.250 C 5.346 193.502, 16.320 219.387, 29.212 237.500 C 32.006 241.426, 42.651 253.435, 47.295 257.901 C 53.435 263.805, 65.473 273.057, 71 276.120 C 72.925 277.187, 76.525 279.226, 79 280.651 C 86.594 285.024, 101.445 290.783, 112.019 293.457 C 121.515 295.857, 123.537 296, 148.012 296 C 172.345 296, 174.517 295.849, 183.222 293.549 C 203.460 288.202, 215.723 282.484, 234.585 269.598 C 241.486 264.884, 260.536 246.189, 264.585 240.158 C 273.065 227.526, 275.388 223.656, 279.982 214.507 C 282.742 209.011, 285 203.813, 285 202.957 C 285 202.101, 285.429 200.971, 285.954 200.446 C 286.479 199.921, 287.593 196.793, 288.429 193.496 C 289.265 190.198, 291.187 183.225, 292.699 178 C 295.256 169.163, 295.448 167.209, 295.448 150 C 295.448 132.791, 295.256 130.837, 292.699 122 C 291.187 116.775, 289.265 109.802, 288.429 106.504 C 287.593 103.207, 286.479 100.079, 285.954 99.554 C 285.429 99.029, 285 97.963, 285 97.185 C 285 95.413, 275.872 76.935, 272.220 71.313 C 264.607 59.595, 261.002 55.015, 253.112 47.041 C 242.053 35.865, 232.855 28.658, 220.680 21.630 C 215.317 18.533, 210.637 16, 210.280 16 C 209.923 16, 207.802 15.126, 205.566 14.058 C 199.677 11.244, 193.755 9.215, 183 6.325 C 174.400 4.014, 171.415 3.745, 151.500 3.489 C 139.400 3.333, 127.925 3.392, 126 3.621 M 100 32.019 C 87.593 34.712, 81.281 37.141, 80.115 39.672 C 79.257 41.534, 79.499 42.002, 81.807 42.947 C 87.265 45.183, 96.265 51.463, 101.057 56.378 C 102.069 57.416, 103.578 57.992, 104.429 57.665 C 105.937 57.087, 144.549 56.709, 148.500 57.234 C 150.187 57.458, 150.474 56.966, 150.335 54.087 C 150.241 52.153, 149.483 50.290, 148.585 49.788 C 147.713 49.300, 147 48.315, 147 47.599 C 147 45.707, 138.052 37.869, 132.912 35.260 C 128.537 33.039, 115.199 29.920, 110.792 30.087 C 109.531 30.135, 104.675 31.005, 100 32.019 M 228.656 55.014 C 228.311 58.322, 227.397 62.034, 226.626 63.264 C 225.855 64.494, 224.935 67.155, 224.581 69.177 C 224.226 71.200, 223.532 73, 223.038 73.177 C 222.544 73.355, 221.996 74.832, 221.820 76.461 C 221.562 78.844, 222.025 79.678, 224.191 80.737 C 225.671 81.461, 227.138 82.859, 227.451 83.846 C 227.764 84.832, 231.841 89.302, 236.510 93.779 C 243.133 100.130, 245.007 102.533, 245.030 104.710 C 245.056 107.088, 245.211 107.242, 246.080 105.750 C 246.641 104.787, 247.693 104, 248.419 104 C 250.044 104, 250.974 98.779, 250.989 89.575 C 251 82.421, 247.321 69.209, 244.402 65.921 C 243.631 65.053, 243 64.022, 243 63.631 C 243 61.389, 232.364 49, 230.440 49 C 229.764 49, 229.024 51.497, 228.656 55.014 M 57.636 118.506 C 56.060 119.328, 53.990 120, 53.035 120 C 50.457 120, 42.232 124.626, 38.291 128.290 C 34.486 131.829, 28 141.030, 28 142.889 C 28 143.539, 27.309 145.125, 26.465 146.413 C 25.602 147.731, 24.599 152.527, 24.174 157.371 C 23.390 166.313, 24.644 182, 26.142 182 C 26.614 182, 27.001 181.662, 27.001 181.250 C 27.002 180.502, 28.716 178.709, 36.750 171.051 C 39.087 168.823, 41 166.629, 41 166.175 C 41 165.722, 50.650 154.809, 62.444 141.925 C 79.484 123.312, 83.541 118.360, 82.194 117.820 C 78.758 116.442, 60.623 116.948, 57.636 118.506 M 148.500 134 C 151.308 135.207, 155.246 135.207, 154.500 134 C 154.160 133.450, 152.221 133.032, 150.191 133.070 C 147.216 133.127, 146.888 133.307, 148.500 134 M 156.510 136.984 C 155.773 138.177, 156.709 140, 158.059 140 C 159.276 140, 159.284 137.293, 158.069 136.543 C 157.557 136.226, 156.856 136.425, 156.510 136.984 M 161.142 145.500 C 161.156 149.814, 161.288 150.145, 162.108 147.914 C 162.711 146.272, 162.705 144.447, 162.092 142.914 C 161.280 140.884, 161.129 141.294, 161.142 145.500 M 262.500 199 C 262.160 199.550, 260.701 200, 259.258 200 C 257.815 200, 251.429 201.754, 245.067 203.899 C 226.802 210.055, 199.485 218, 196.584 218 C 193.753 218, 191.645 221.048, 193.945 221.815 C 194.663 222.054, 196.049 223.049, 197.026 224.026 C 198.003 225.003, 199.859 226.125, 201.151 226.520 C 202.443 226.914, 204.263 227.905, 205.195 228.723 C 208.950 232.017, 232.356 232.347, 236.350 229.162 C 236.982 228.657, 238.625 227.903, 240 227.485 C 245.010 225.964, 259 214.674, 259 212.154 C 259 211.519, 259.412 211, 259.915 211 C 260.874 211, 265.421 203.401, 266.504 199.988 C 266.991 198.455, 266.676 198, 265.126 198 C 264.022 198, 262.840 198.450, 262.500 199 M 92.477 235.071 C 91.546 238.006, 92.957 248.814, 94.470 250.327 C 95.166 251.023, 96.028 252.513, 96.385 253.636 C 97.759 257.968, 108.366 267.100, 118 272.246 C 121.832 274.293, 135.470 279, 137.569 279 C 140.156 279, 140.167 276.774, 137.604 271.835 C 136.172 269.074, 135 266.054, 135 265.123 C 135 264.192, 134.152 260.971, 133.114 257.965 C 132.077 254.959, 130.917 249.884, 130.535 246.687 C 129.853 240.979, 129.801 240.901, 127.641 242.316 C 125.699 243.588, 124.743 243.536, 119.471 241.872 C 116.187 240.835, 109.900 239.054, 105.500 237.914 C 101.100 236.773, 96.790 235.201, 95.921 234.420 C 93.808 232.519, 93.254 232.624, 92.477 235.071" stroke="none" fill="black" fill-rule="evenodd"/>
          <path fill-opacity="0.430" d="M 126.500 4.585 C 125.400 4.831, 121.125 5.747, 117 6.619 C 73.580 15.805, 35.151 46.451, 16.209 87 C 10.414 99.403, 4.722 117.813, 3.072 129.486 C 2.528 133.328, 1.615 136.628, 1.042 136.819 C -0.289 137.263, -0.381 162.699, 0.946 163.167 C 1.467 163.350, 2.387 166.650, 2.990 170.500 C 5.019 183.438, 10.680 201.384, 16.711 213.996 C 36.031 254.398, 71.259 282.367, 117 293.618 C 128.083 296.344, 166.981 296.334, 178.500 293.603 C 204.028 287.548, 225.802 276.579, 243.345 260.936 C 265.496 241.182, 281.185 216.352, 288.052 190.176 C 289.109 186.147, 290.174 182.527, 290.420 182.130 C 290.665 181.733, 291.796 176.768, 292.933 171.096 C 296.431 153.644, 295.093 130.966, 289.643 115.368 C 288.900 113.241, 287.984 109.832, 287.609 107.792 C 287.233 105.753, 286.270 102.828, 285.469 101.292 C 284.668 99.757, 284.010 97.891, 284.006 97.147 C 283.996 94.811, 274.220 76.140, 268.558 67.640 C 251.231 41.630, 223.666 20.603, 193.921 10.705 C 177.538 5.254, 173.720 4.701, 150.500 4.412 C 138.400 4.261, 127.600 4.339, 126.500 4.585 M 95.500 31.420 C 84.269 34.609, 78.309 37.450, 77.500 40.001 C 77.124 41.183, 76.971 42.229, 77.159 42.325 C 77.346 42.421, 80.177 43.850, 83.449 45.500 C 90.184 48.896, 102.176 60.204, 111.837 72.270 C 117.413 79.234, 118.271 79.925, 120.112 78.940 C 121.458 78.220, 128.365 77.954, 140.128 78.170 L 158.090 78.500 158.671 76.179 C 160.705 68.062, 153.923 52.031, 144.446 42.554 C 131.787 29.895, 114.623 25.991, 95.500 31.420 M 228.607 48.582 C 228.273 49.452, 228 51.025, 228 52.078 C 228 54.420, 224.433 64.889, 221.553 71 C 218.757 76.933, 210.903 89, 209.839 89 C 209.377 89, 209 89.430, 209 89.956 C 209 90.481, 207.858 92.594, 206.462 94.651 L 203.925 98.390 207.212 100.935 C 210.940 103.820, 211.122 104.001, 223.795 117.367 C 233.060 127.138, 233.099 127.165, 235.577 125.541 C 239.602 122.904, 245.740 115.855, 248.402 110.814 C 251.675 104.614, 253.158 93.591, 251.975 84.257 C 251.181 77.996, 250.206 74.860, 246.608 67 C 243.106 59.348, 232.870 47, 230.030 47 C 229.581 47, 228.941 47.712, 228.607 48.582 M 64 116.075 C 46.612 118.190, 33.660 127.543, 26.715 143 C 25.355 146.025, 23.436 152.859, 22.450 158.187 C 20.896 166.581, 20.823 168.804, 21.904 174.848 C 22.589 178.684, 23.764 182.650, 24.514 183.661 C 25.791 185.383, 26.219 185.165, 31.221 180.250 C 34.159 177.363, 36.963 175, 37.453 175 C 37.942 175, 39.053 174.390, 39.921 173.645 C 43.564 170.519, 61.621 162, 64.606 162 C 65.658 162, 67.081 161.100, 67.768 160 C 68.455 158.900, 69.658 158, 70.441 158 C 71.224 158, 72.157 157.080, 72.514 155.957 C 72.870 154.833, 75.543 151.345, 78.452 148.207 C 81.361 145.068, 87.214 138.675, 91.459 134 C 95.704 129.325, 100.599 124.748, 102.338 123.829 C 105.191 122.321, 105.305 122.095, 103.500 121.515 C 102.400 121.161, 99.700 120.018, 97.500 118.974 C 95.286 117.924, 89.182 116.613, 83.830 116.038 C 73.351 114.913, 73.550 114.913, 64 116.075 M 142.750 132.689 C 139.497 133.539, 140.973 134.739, 146.110 135.420 C 152.178 136.225, 155.249 138.049, 157.982 142.472 C 160.081 145.867, 160.646 150.908, 159.112 152.550 C 158.624 153.072, 157.928 154.625, 157.565 156 C 157.013 158.087, 157.086 158.211, 158.002 156.750 C 158.606 155.787, 159.734 155, 160.510 155 C 162.487 155, 164.394 147.916, 163.583 143.590 C 163.177 141.424, 161.391 138.393, 159.108 135.993 C 155.548 132.250, 154.971 132.007, 149.905 132.116 C 146.932 132.180, 143.713 132.438, 142.750 132.689 M 212.500 195.522 C 196.921 200.882, 182.670 205, 179.703 205 C 176.437 205, 176.136 207.136, 179 210 C 180.100 211.100, 181 212.294, 181 212.654 C 181 213.678, 189.050 220.873, 193.772 224.070 C 196.122 225.661, 200.622 228.203, 203.772 229.720 C 208.996 232.235, 210.511 232.478, 221 232.489 C 232.160 232.500, 232.724 232.393, 240.069 228.885 C 251.175 223.581, 262.636 212.340, 268.501 200.998 C 269.325 199.404, 270 197.681, 270 197.170 C 270 196.647, 264.206 196.218, 256.750 196.188 C 247.383 196.151, 242.469 195.701, 239.982 194.651 C 238.047 193.835, 233.322 192.923, 229.482 192.625 C 223.316 192.146, 221.331 192.484, 212.500 195.522 M 93.366 211.750 C 92.996 213.262, 91.862 216.068, 90.847 217.985 C 88.141 223.091, 88.254 238.535, 91.051 245.893 C 96.186 259.404, 107.304 269.506, 125 276.741 C 131.315 279.322, 138.889 280.492, 140.825 279.184 C 141.884 278.469, 141.554 276.973, 139.182 271.741 C 134.895 262.286, 133.490 252.952, 133.675 235.162 L 133.835 219.825 131.523 220.405 C 130.246 220.725, 125.915 219.915, 121.855 218.597 C 117.810 217.283, 110.676 215.182, 106.002 213.928 C 101.328 212.673, 96.909 211.052, 96.181 210.324 C 94.357 208.500, 94.133 208.613, 93.366 211.750" stroke="none" fill="black" fill-rule="evenodd"/>
          <path fill-opacity="0.479" d="M 118.500 7.520 C 97.950 12.296, 85.923 17.254, 69.120 27.878 C 61.065 32.971, 46.913 45.063, 41.386 51.575 C 38.699 54.742, 35.798 58.073, 34.940 58.977 C 32.294 61.764, 21.897 77.805, 19.509 82.784 C 12.576 97.238, 10.485 102.690, 8.489 111.515 C 7.741 114.823, 6.660 118.763, 6.087 120.270 C 5.514 121.777, 4.342 129.083, 3.481 136.505 C 2.063 148.746, 2.063 151.254, 3.481 163.495 C 4.342 170.917, 5.514 178.223, 6.087 179.730 C 6.660 181.237, 7.746 185.177, 8.500 188.485 C 9.982 194.987, 13.162 204.557, 14.854 207.605 C 15.433 208.647, 17.198 212.255, 18.777 215.623 C 21.200 220.792, 32.157 238.405, 33.943 240 C 34.250 240.275, 37.360 243.762, 40.853 247.748 C 49.490 257.607, 66.492 271.566, 75 275.786 C 76.375 276.467, 79.525 278.171, 82 279.572 C 90.005 284.102, 104.480 289.485, 114.500 291.659 C 118.350 292.494, 123.300 293.568, 125.500 294.045 C 130.693 295.172, 165.307 295.172, 170.500 294.045 C 172.700 293.568, 177.650 292.494, 181.500 291.659 C 208.082 285.892, 235.873 269.390, 255.120 247.944 C 261.991 240.289, 272.114 225.922, 275.162 219.500 C 276.207 217.300, 277.431 214.825, 277.883 214 C 281.815 206.822, 286.656 193.795, 287.543 188 C 287.922 185.525, 288.643 182.718, 289.144 181.763 C 290.931 178.360, 293.970 158.359, 293.970 150 C 293.970 141.625, 291.100 122.699, 289.109 117.939 C 288.548 116.597, 287.588 112.920, 286.977 109.767 C 286.366 106.615, 285.497 103.807, 285.046 103.528 C 284.595 103.250, 283.914 101.355, 283.532 99.317 C 282.934 96.129, 281.421 92.588, 277.844 86 C 277.396 85.175, 276.384 83.069, 275.595 81.319 C 273.091 75.770, 265.159 64.267, 257.442 54.995 C 247.664 43.247, 235.248 32.861, 219.500 23.257 C 210.470 17.749, 185.026 8.017, 179.583 7.989 C 178.437 7.983, 175.291 7.308, 172.591 6.489 C 168.903 5.370, 162.811 5.024, 148.091 5.098 C 131.357 5.182, 127.042 5.536, 118.500 7.520 M 96 29.696 C 85.467 33.320, 77.912 36.402, 77.081 37.415 C 74.967 39.990, 75.506 42.494, 78.500 44.010 C 93.616 51.662, 106.753 66.233, 118.305 88.156 C 120.234 91.817, 122.755 95.755, 123.906 96.906 C 125.058 98.058, 126 99.439, 126 99.975 C 126 100.586, 126.879 100.616, 128.355 100.055 C 129.651 99.563, 136.695 99.117, 144.009 99.066 C 154.118 98.994, 157.843 99.323, 159.539 100.434 C 161.660 101.823, 161.801 101.743, 162.385 98.823 C 163.680 92.352, 162.977 79.287, 160.885 70.940 C 153.765 42.521, 136.457 27.875, 110.229 28.074 C 104.235 28.119, 98.772 28.742, 96 29.696 M 228.203 47.197 C 227.541 47.859, 227 49.147, 227 50.061 C 227 53.188, 222.282 66.496, 219.099 72.348 C 213.949 81.817, 208.420 88.746, 195.590 101.813 L 183.500 114.125 186.617 116.813 C 189.625 119.406, 196.943 127.279, 205.704 137.347 L 209.909 142.178 215.204 140.168 C 244.712 128.970, 257.640 108.684, 252.860 81.082 C 252.233 77.462, 250.883 72.932, 249.860 71.015 C 248.837 69.098, 248 67.183, 248 66.760 C 248 65.640, 239.037 52.956, 236.049 49.848 C 232.959 46.633, 229.826 45.574, 228.203 47.197 M 62.500 114.693 C 58.013 115.281, 45.197 120.058, 43.894 121.628 C 43.267 122.383, 42.184 123, 41.485 123 C 39.314 123, 29.139 134.831, 26.485 140.441 C 19.915 154.327, 17.923 176.016, 22.505 183.750 C 23.565 185.537, 24.897 186.994, 25.466 186.988 C 26.035 186.981, 28.778 184.769, 31.562 182.072 C 37.013 176.792, 45.976 171.446, 56.139 167.415 C 62.559 164.869, 81.114 159.781, 88.500 158.542 C 91.635 158.016, 93.188 156.966, 95.682 153.685 C 97.433 151.383, 103.958 144.263, 110.182 137.861 L 121.500 126.223 116.500 123.622 C 101.942 116.050, 79.923 112.409, 62.500 114.693 M 142.758 131.384 C 139.022 132.757, 135.096 136.458, 135.033 138.668 C 135.015 139.311, 134.710 140.593, 134.355 141.517 C 133.779 143.019, 133.965 143.054, 136.098 141.849 C 137.411 141.107, 139.562 139.713, 140.878 138.750 C 142.193 137.787, 144.994 137, 147.102 137 C 152.222 137, 158.002 142.456, 157.996 147.283 C 157.992 150.667, 154.745 157, 153.015 157 C 152.457 157, 152 157.653, 152 158.450 C 152 159.248, 151.213 160.359, 150.250 160.920 C 147.099 162.755, 153.087 162.110, 156.912 160.202 C 162.466 157.431, 164.500 153.806, 164.500 146.677 C 164.500 141.397, 164.078 139.949, 161.595 136.702 C 159.997 134.613, 157.972 132.520, 157.095 132.051 C 153.898 130.340, 146.532 129.998, 142.758 131.384 M 195 182.554 C 190.875 183.918, 182.550 186.557, 176.500 188.418 C 169.867 190.459, 165.385 192.368, 165.210 193.227 C 164.795 195.268, 172.459 206.492, 178.957 213.358 C 189.232 224.217, 200.021 230.703, 212.366 233.442 C 228.380 236.996, 243.673 231.631, 257.801 217.504 C 262.998 212.307, 271.996 199.610, 271.978 197.500 C 271.951 194.379, 270.211 193.776, 263.252 194.475 C 250.986 195.706, 234.140 191.947, 216.646 184.075 C 207.220 179.833, 203.929 179.602, 195 182.554 M 102.924 190.418 C 98.101 195.332, 97 196.686, 97 197.699 C 97 198.266, 96.183 199.803, 95.184 201.115 C 94.184 202.427, 92.054 207.100, 90.450 211.500 C 87.896 218.506, 87.531 220.867, 87.517 230.500 C 87.499 242.482, 88.877 247.272, 94.920 256.226 C 102.806 267.912, 121.427 279.159, 135.398 280.675 C 143.939 281.603, 144.672 280.183, 140.345 271.097 C 137.811 265.778, 136.757 261.792, 135.904 254.311 C 134.609 242.951, 135.410 224.363, 137.549 216.150 C 138.347 213.086, 139 208.072, 139 205.006 L 139 199.432 129.250 196.626 C 121.401 194.368, 113.575 191.542, 105.978 188.225 C 105.631 188.073, 104.256 189.060, 102.924 190.418" stroke="none" fill="black" fill-rule="evenodd"/>
          <path fill-opacity="0.959" d="M 128.500 7.523 C 125.750 8.230, 121.475 8.861, 119 8.926 C 116.525 8.991, 112.538 9.934, 110.141 11.022 C 107.743 12.110, 104.868 13, 103.750 13 C 102.633 13, 99.645 13.949, 97.110 15.109 C 94.574 16.268, 90.475 18.135, 88 19.256 C 85.525 20.378, 82.825 21.688, 82 22.168 C 81.175 22.648, 78.925 23.755, 77 24.628 C 75.075 25.501, 73.140 26.842, 72.700 27.608 C 72.260 28.373, 71.493 29, 70.995 29 C 68.536 29, 57.757 37.575, 47.650 47.572 C 38.692 56.432, 35.063 60.644, 31.158 66.710 C 29.462 69.345, 27.440 72.175, 26.664 73 C 25.888 73.825, 24.954 75.472, 24.588 76.660 C 24.222 77.848, 23.265 79.365, 22.461 80.032 C 21.658 80.699, 21 82.029, 21 82.988 C 21 83.946, 20.100 85.874, 19 87.273 C 17.900 88.671, 17 90.696, 17 91.773 C 17 92.849, 16.100 94.874, 15 96.273 C 13.900 97.671, 12.985 99.869, 12.966 101.158 C 12.947 102.446, 12.063 105.300, 11 107.500 C 9.937 109.700, 9.053 113.178, 9.034 115.230 C 9.015 117.281, 8.213 120.881, 7.250 123.230 C 4.653 129.567, 4.653 170.433, 7.250 176.770 C 8.212 179.119, 9 182.624, 9 184.560 C 9 186.496, 9.900 189.844, 11 192 C 12.100 194.156, 13 197.105, 13 198.552 C 13 200, 13.900 202.329, 15 203.727 C 16.100 205.126, 17 207.151, 17 208.227 C 17 209.304, 17.900 211.329, 19 212.727 C 20.100 214.126, 21 215.926, 21 216.727 C 21 217.529, 21.900 219.329, 23 220.727 C 24.100 222.126, 25 223.814, 25 224.480 C 25 225.145, 25.900 226.505, 27 227.500 C 28.100 228.495, 29 229.845, 29 230.500 C 29 231.155, 29.900 232.505, 31 233.500 C 32.100 234.495, 33 235.696, 33 236.168 C 33 238.208, 60.670 266, 62.702 266 C 62.982 266, 64.548 267.125, 66.182 268.500 C 67.816 269.875, 69.772 271, 70.527 271 C 71.283 271, 72.260 271.563, 72.700 272.250 C 73.140 272.938, 76.650 275.059, 80.500 276.965 C 84.350 278.871, 87.725 280.693, 88 281.014 C 88.275 281.335, 90.413 282.156, 92.750 282.839 C 95.088 283.522, 97 284.461, 97 284.927 C 97 285.392, 99.137 286.084, 101.750 286.464 C 104.362 286.845, 107.408 287.738, 108.517 288.449 C 109.627 289.160, 114.255 290.242, 118.802 290.854 C 123.349 291.466, 127.924 292.424, 128.969 292.983 C 131.465 294.319, 164.535 294.319, 167.031 292.983 C 168.076 292.424, 172.651 291.466, 177.198 290.854 C 181.745 290.242, 186.373 289.160, 187.483 288.449 C 188.592 287.738, 191.637 286.845, 194.250 286.464 C 196.863 286.084, 199 285.380, 199 284.901 C 199 284.421, 201.011 283.522, 203.470 282.903 C 205.928 282.284, 208.458 281.153, 209.092 280.389 C 209.726 279.625, 211.021 279, 211.969 279 C 212.918 279, 214.732 278.100, 216 277 C 217.268 275.900, 218.917 275, 219.663 275 C 220.409 275, 221.790 274.100, 222.732 273 C 223.674 271.900, 224.883 271, 225.418 271 C 229.018 271, 250.070 252.265, 259 241.114 C 260.925 238.711, 263.243 235.946, 264.151 234.971 C 265.059 233.995, 266.083 232.312, 266.427 231.231 C 266.770 230.149, 267.940 228.460, 269.026 227.477 C 270.111 226.494, 271 225.043, 271 224.253 C 271 223.462, 271.900 221.671, 273 220.273 C 274.100 218.874, 275 216.877, 275 215.834 C 275 214.791, 275.629 213.696, 276.398 213.401 C 277.168 213.105, 278.299 210.870, 278.913 208.432 C 279.527 205.994, 280.433 204, 280.927 204 C 281.420 204, 282.146 202.097, 282.539 199.772 C 282.931 197.446, 283.831 194.634, 284.538 193.522 C 285.245 192.410, 286.289 188.425, 286.858 184.667 C 287.428 180.908, 288.362 177.269, 288.934 176.580 C 291.063 174.014, 292.317 150.681, 291.050 137.204 C 290.395 130.236, 289.417 124.002, 288.876 123.351 C 288.336 122.700, 287.418 119.113, 286.837 115.381 C 286.256 111.648, 285.198 107.673, 284.486 106.547 C 283.775 105.421, 282.884 102.588, 282.508 100.250 C 282.132 97.912, 281.431 96, 280.951 96 C 280.470 96, 279.568 94.088, 278.946 91.750 C 278.323 89.412, 277.268 86.825, 276.600 86 C 275.933 85.175, 274.853 83.375, 274.201 82 C 272.811 79.072, 272.039 77.802, 266.039 68.585 C 257.135 54.907, 241.879 39.622, 228 30.472 C 225.525 28.841, 223.140 26.942, 222.700 26.253 C 222.260 25.564, 221.084 25, 220.085 25 C 219.087 25, 217.126 24.100, 215.727 23 C 214.329 21.900, 212.529 21, 211.727 21 C 210.926 21, 209.126 20.100, 207.727 19 C 206.329 17.900, 204.356 16.997, 203.342 16.993 C 202.329 16.990, 200.150 16.093, 198.500 15 C 196.850 13.907, 194.245 13.010, 192.710 13.007 C 191.176 13.003, 188.156 12.100, 186 11 C 183.844 9.900, 180.149 8.993, 177.790 8.984 C 175.430 8.976, 170.800 8.317, 167.500 7.520 C 159.983 5.705, 135.565 5.707, 128.500 7.523 M 94.708 28.469 C 93.172 29.270, 90.247 30.224, 88.208 30.589 C 86.168 30.955, 83.825 31.836, 83 32.549 C 82.175 33.261, 80.251 34.156, 78.724 34.537 C 77.197 34.918, 75.509 36.049, 74.974 37.049 C 73.393 40.002, 73.805 44.002, 75.750 44.604 C 76.713 44.901, 78.175 45.570, 79 46.091 C 79.825 46.612, 81.645 47.592, 83.045 48.269 C 87.770 50.555, 100.177 62.654, 104.442 69.136 C 106.021 71.536, 108.044 74.625, 108.938 76 C 111.534 79.995, 119.532 96.871, 122.445 104.500 C 126.005 113.827, 128.187 118.005, 130 118.971 C 133.209 120.682, 144.261 121.169, 152.693 119.973 C 163.901 118.382, 165.450 116.964, 166.386 107.444 C 167.211 99.044, 164.543 72.950, 162.443 68.890 C 161.649 67.355, 161 65.240, 161 64.191 C 161 62.112, 156.976 53.850, 152.871 47.500 C 149.484 42.260, 142.074 35.084, 139.322 34.378 C 138.125 34.071, 136.923 33.242, 136.652 32.536 C 136.381 31.830, 134.459 30.934, 132.381 30.544 C 130.303 30.154, 127.692 29.197, 126.579 28.417 C 123.673 26.382, 98.630 26.423, 94.708 28.469 M 227.834 44.742 C 226.125 46.757, 223.003 56.189, 222.993 59.365 C 222.990 60.539, 222.093 62.850, 221 64.500 C 219.907 66.150, 219.010 68.043, 219.007 68.706 C 219.003 69.369, 217.867 71.619, 216.482 73.706 C 215.097 75.793, 213.409 78.341, 212.732 79.370 C 206.892 88.235, 195.530 99.169, 177.892 112.896 C 167.757 120.784, 167.453 121.747, 171.430 133.328 C 174.095 141.088, 180.360 150.806, 183.456 151.983 C 184.618 152.425, 188.396 152.208, 192.018 151.492 C 211.241 147.689, 233.527 135.994, 242.674 124.909 C 244.222 123.034, 245.994 121.050, 246.614 120.500 C 247.233 119.950, 248.871 117.250, 250.254 114.500 C 256.966 101.154, 257.835 92.552, 253.943 78 C 252.714 73.405, 248.112 62.903, 246.933 62 C 246.573 61.725, 245.530 60.038, 244.614 58.250 C 243.698 56.462, 242.510 55, 241.974 55 C 241.438 55, 241 54.528, 241 53.950 C 241 52.635, 235.356 46.856, 231.913 44.644 C 229.488 43.087, 229.232 43.094, 227.834 44.742 M 67 111.988 C 65.075 112.474, 60.800 113.518, 57.500 114.307 C 54.200 115.097, 50.150 116.473, 48.500 117.365 C 46.850 118.258, 44.923 118.990, 44.219 118.994 C 43.514 118.997, 42.678 119.675, 42.362 120.500 C 42.045 121.325, 41.253 122, 40.601 122 C 38.134 122, 29.097 132.057, 26.223 138 C 25.559 139.375, 24.594 141.175, 24.081 142 C 21.032 146.897, 19.627 154.180, 19.267 166.956 C 19.058 174.357, 19.120 181.341, 19.405 182.476 C 20.059 185.085, 23.659 189, 25.403 189 C 26.132 189, 29.377 186.488, 32.614 183.419 C 35.851 180.349, 39.850 177.208, 41.500 176.439 C 43.150 175.670, 45.175 174.617, 46 174.100 C 49.473 171.922, 55.818 169.200, 59.040 168.505 C 60.943 168.095, 63.625 167.189, 65 166.492 C 67.365 165.293, 78.747 163.535, 103.361 160.565 C 113.385 159.356, 114.400 159.033, 116.540 156.377 C 120.318 151.689, 122.989 145.570, 124.572 137.976 C 126.372 129.346, 125.690 124.682, 122.306 122.465 C 119.062 120.339, 102.423 115, 99.043 115 C 97.601 115, 93.786 114.314, 90.565 113.475 C 83.219 111.562, 71.594 110.828, 67 111.988 M 140.500 130.227 C 135.080 132.908, 131.844 137.200, 131.247 142.503 C 130.397 150.038, 131.689 153.785, 136.952 159.048 C 142.131 164.226, 146.311 165.727, 152.382 164.588 C 157.131 163.697, 163.819 158.597, 164.617 155.259 C 164.979 153.742, 165.599 152.050, 165.993 151.500 C 167.578 149.292, 167.761 145.768, 166.424 143.206 C 165.648 141.718, 165.005 139.825, 164.996 139 C 164.971 136.798, 159.086 131.469, 154.628 129.613 C 149.690 127.556, 145.535 127.737, 140.500 130.227 M 142.972 140.088 C 141.582 140.600, 139.590 142.605, 138.546 144.544 C 136.665 148.038, 136.667 148.105, 138.762 151.770 C 141.353 156.305, 145.120 157.546, 150.567 155.660 C 153.424 154.671, 154.610 153.590, 155.223 151.417 C 157.683 142.699, 151.475 136.959, 142.972 140.088 M 181 165.600 C 178.525 166.251, 175.150 167.505, 173.500 168.386 C 171.850 169.267, 170.118 169.990, 169.651 169.994 C 167.999 170.006, 161.677 173.395, 159.506 175.433 C 153.399 181.166, 153.727 182.896, 163.889 198.500 C 168.597 205.729, 187.075 225, 189.299 225 C 189.990 225, 191.326 225.900, 192.268 227 C 193.210 228.100, 194.701 229, 195.582 229 C 196.464 229, 198.329 229.900, 199.727 231 C 201.126 232.100, 203.131 233, 204.185 233 C 205.238 233, 207.539 233.768, 209.300 234.707 C 213.772 237.093, 228.309 237.099, 232.500 234.717 C 234.150 233.780, 236.264 233.010, 237.197 233.006 C 238.951 233, 246.428 229.312, 249.614 226.882 C 253.298 224.071, 269 207.845, 269 206.848 C 269 206.280, 269.900 204.671, 271 203.273 C 273.376 200.252, 273.674 193.804, 271.520 192.016 C 270.394 191.082, 268.537 191.037, 263.770 191.826 C 259.892 192.469, 255.592 192.532, 252.500 191.992 C 249.750 191.512, 245.700 191.077, 243.500 191.026 C 241.300 190.974, 237.700 190.063, 235.500 189 C 233.300 187.937, 230.813 187.053, 229.973 187.034 C 229.132 187.015, 227.557 186.386, 226.473 185.635 C 225.388 184.884, 223.375 183.929, 222 183.512 C 220.625 183.096, 212.750 178.824, 204.500 174.020 C 196.250 169.216, 188.600 165.089, 187.500 164.850 C 186.400 164.611, 183.475 164.948, 181 165.600 M 111.599 172.066 C 98.647 186.056, 88.041 206.640, 86.005 221.740 C 84.786 230.775, 86.199 245.165, 88.583 248 C 89.277 248.825, 90.143 250.698, 90.509 252.163 C 91.230 255.053, 103.922 269, 105.831 269 C 106.474 269, 107 269.473, 107 270.051 C 107 270.629, 108.498 271.728, 110.330 272.493 C 112.161 273.258, 114.241 274.585, 114.952 275.442 C 115.663 276.299, 117.283 277, 118.551 277 C 119.819 277, 121.620 277.763, 122.552 278.695 C 123.485 279.627, 126.329 280.693, 128.874 281.063 C 131.418 281.433, 135.335 282.066, 137.578 282.468 C 140.754 283.039, 142.026 282.831, 143.328 281.529 C 145.403 279.455, 145.493 275.654, 143.507 274.006 C 142.686 273.325, 141.551 270.907, 140.984 268.634 C 140.418 266.360, 139.406 263.600, 138.736 262.500 C 137.013 259.671, 136.481 232.564, 138.015 225.788 C 138.674 222.879, 139.807 217.800, 140.534 214.500 C 142.253 206.698, 145.519 195.767, 146.906 193.175 C 148.885 189.478, 148.202 184.397, 145.250 180.844 C 141.605 176.456, 137.763 173.071, 136.385 173.032 C 135.772 173.014, 134.197 172.184, 132.885 171.187 C 129.973 168.973, 122.200 166, 119.324 166 C 118.028 166, 115.051 168.338, 111.599 172.066" stroke="none" fill="black" fill-rule="evenodd"/>
        </g>
      </g>
    </g>
  </g>
</svg>
